<!-- <svg xmlns="http://www.w3.org/2000/svg" fill="none" viewBox="0 0 24 24" stroke-width="2.5" stroke="currentColor" class="size-6" width="20px" height="20px" style=" margin-top: 2px;">
  <path stroke-linecap="round" stroke-linejoin="round" d="M12 9v6m3-3H9m12 0a9 9 0 1 1-18 0 9 9 0 0 1 18 0Z" />
</svg> -->
<!-- <svg xmlns="http://www.w3.org/2000/svg" fill="none" viewBox="0 0 24 24" stroke-width="3.5" stroke="currentColor" class="size-6" width="17px" height="17px" style=" margin-top: 2px;">
  <path stroke-linecap="round" stroke-linejoin="round" d="M12 4.5v15m7.5-7.5h-15" />
</svg> -->
<svg xmlns="http://www.w3.org/2000/svg" viewBox="0 0 27 27" class="size-6" width="20px" height="20px" style=" margin-top: 5px;">
<path fill="#1ea19d" stroke-linecap="round" stroke-linejoin="round" d="M11 9V5H9v4H5v2h4v4h2v-4h4V9zm-1 11a10 10 0 1 1 0-20a10 10 0 0 1 0 20"/></svg>