<?xml version="1.0" encoding="utf-8"?>
<!-- Generator: Adobe Illustrator 22.0.0, SVG Export Plug-In . SVG Version: 6.00 Build 0)  -->
<svg version="1.1"
	 id="svg1825" xmlns:cc="http://creativecommons.org/ns#" xmlns:dc="http://purl.org/dc/elements/1.1/" xmlns:inkscape="http://www.inkscape.org/namespaces/inkscape" xmlns:rdf="http://www.w3.org/1999/02/22-rdf-syntax-ns#" xmlns:sodipodi="http://sodipodi.sourceforge.net/DTD/sodipodi-0.dtd" xmlns:svg="http://www.w3.org/2000/svg"
	 xmlns="http://www.w3.org/2000/svg" xmlns:xlink="http://www.w3.org/1999/xlink" x="0px" y="0px" viewBox="0 0 439.5 443.9"
	 style="enable-background:new 0 0 439.5 443.9;" xml:space="preserve">
<style type="text/css">
	.st0{opacity:0.15;}
	.st1{fill:#FFFFFF;}
</style>
<g class="st0">
	<path class="st1" d="M218.8,0C98,0,0,98.9,0,221c0,122.1,98,221,218.8,221c120.8,0,218.8-98.9,218.8-221
		C437.6,98.9,339.7,0,218.8,0z M218.8,403.3c-99.7,0-180.5-81.6-180.5-182.3c0-100.7,80.8-182.3,180.5-182.3
		c99.7,0,180.5,81.6,180.5,182.3C399.3,321.7,318.5,403.3,218.8,403.3z"/>
	<g id="g1849">
		<path id="path1851" class="st1" d="M196.4,298l49.3-0.1v-38.3c0-10.4,4.8-20.2,17.8-28.7c13-8.5,49.2-25.8,49.2-71.1
			c0-45.4-38-76.5-70-83.1c-31.9-6.6-66.6-2.3-91.1,24.6c-22,24.1-26.6,43.2-26.6,85.2h49.3v-9.8c0-22.4,2.6-46.1,34.6-52.5
			c17.5-3.5,33.9,1.9,43.6,11.5c11.1,10.9,11.2,35.3-6.5,47.5L218.1,202c-16.2,10.4-21.8,22-21.8,39V298z"/>
		<g id="g1853">
			<path id="path1855" class="st1" d="M196,368.1v-50.8h50v50.8H196z"/>
			<path id="path1857" class="st1" d="M221,342.7"/>
		</g>
	</g>
</g>
</svg>
