<?xml version="1.0" encoding="utf-8"?>
<!-- Generator: Adobe Illustrator 22.0.0, SVG Export Plug-In . SVG Version: 6.00 Build 0)  -->
<svg version="1.1" id="Layer_1" xmlns="http://www.w3.org/2000/svg" xmlns:xlink="http://www.w3.org/1999/xlink" x="0px" y="0px"
	 viewBox="0 0 24 24" style="enable-background:new 0 0 24 24;" xml:space="preserve">
<style type="text/css">
	.st0{opacity:0.15;}
	.st1{fill:#FFFFFF;}
</style>
<g class="st0">
	<path class="st1" d="M22.9,0.8H18C18,0.3,17.6,0,17,0s-1,0.3-1,0.8H8C8,0.3,7.6,0,7,0S6,0.3,6,0.8H1.1C0.5,0.8,0,1.3,0,1.8v17.4
		c0,0.5,0.5,0.9,1.1,0.9h21.8c0.6,0,1.1-0.4,1.1-0.9V1.8C24,1.3,23.5,0.8,22.9,0.8z M22,18.5H2V6.7h20V18.5z M22,5.9H2V2.5h4v0.8
		c0,0.5,0.4,0.8,1,0.8s1-0.3,1-0.8V2.5h8v0.8c0,0.5,0.4,0.8,1,0.8s1-0.3,1-0.8V2.5h4V5.9z"/>
	<path class="st1" d="M10.3,15.3c0.4,0.4,1,0.4,1.4,0l4.1-4.1c0.4-0.4,0.4-1,0-1.4s-1-0.4-1.4,0L11,13.3l-1.4-1.4
		c-0.4-0.4-1-0.4-1.4,0c-0.4,0.4-0.4,1,0,1.4L10.3,15.3z"/>
</g>
</svg>
