<?xml version="1.0" encoding="utf-8"?>
<!-- Generator: Adobe Illustrator 22.0.0, SVG Export Plug-In . SVG Version: 6.00 Build 0)  -->
<svg version="1.1" id="Layer_1" xmlns="http://www.w3.org/2000/svg" xmlns:xlink="http://www.w3.org/1999/xlink" x="0px" y="0px"
	 viewBox="0 0 24 20.9" style="enable-background:new 0 0 24 20.9;" xml:space="preserve">
<style type="text/css">
	.st0{opacity:0.15;}
	.st1{fill:#FFFFFF;stroke:#FFFFFF;stroke-width:0.5;stroke-miterlimit:10;}
</style>
<title></title>
<g id="Camada_2" class="st0">
	<g id="Camada_1-2">
		<path class="st1" d="M23.2,4.1h-6.5V1.8c0-0.8-0.7-1.5-1.5-1.5H8.8C8,0.3,7.3,1,7.3,1.8v2.3H0.8c-0.3,0-0.5,0.2-0.5,0.5v5.8
			c0,1,0.6,1.8,1.5,2.2v7.5c0,0.3,0.2,0.5,0.5,0.5h19.4c0.3,0,0.5-0.2,0.5-0.5v-7.5c0.9-0.4,1.5-1.3,1.5-2.2V4.5
			C23.7,4.3,23.4,4.1,23.2,4.1z M8.3,1.8c0-0.3,0.2-0.5,0.5-0.5h6.4c0.3,0,0.5,0.2,0.5,0.5v2.3H8.3V1.8z M21.2,19.6H2.8v-6.8h2.4
			v0.6c0,0.8,0.6,1.5,1.4,1.5l0,0h1c0.8,0,1.5-0.6,1.5-1.4c0,0,0,0,0-0.1v-0.6h5.8v0.6c0,0.8,0.7,1.5,1.5,1.5h1
			c0.8,0,1.5-0.7,1.5-1.5v-0.6h2.4v6.8H21.2z M6.2,12.3L6.2,12.3v-0.8h1.9v1.8c0,0.3-0.2,0.5-0.5,0.5h-1c-0.3,0-0.5-0.2-0.5-0.5v-1
			H6.2z M17.8,13.4c0,0.3-0.2,0.5-0.5,0.5h-1c-0.3,0-0.5-0.2-0.5-0.5v-1.8h1.9v1.8H17.8z M22.7,10.4c0,0.8-0.7,1.5-1.5,1.5h-2.4V11
			c0-0.3-0.2-0.5-0.5-0.5h-2.9c-0.3,0-0.5,0.2-0.5,0.5v0.8H9.1V11c0-0.3-0.2-0.5-0.5-0.5H5.7c-0.3,0-0.5,0.2-0.5,0.5v0.8H2.8
			c-0.8,0-1.5-0.7-1.5-1.5l0,0V5h21.4C22.7,5,22.7,10.4,22.7,10.4z"/>
	</g>
</g>
</svg>
